<svg width="29" height="14" viewBox="0 0 29 14" fill="none" xmlns="http://www.w3.org/2000/svg">
<path d="M0 6.81574C0 4.99602 0 3.1763 0 1.35658C0 0.0153331 0.0233646 -0.00350699 1.4486 0.000260549C2.36761 0.000260549 2.82867 0.466183 2.83179 1.39802C2.83179 3.31193 2.85515 5.22584 2.81777 7.13975C2.80375 7.75009 2.93927 8.0402 3.81777 8.02513C6.50003 7.98368 9.18696 7.98745 11.8692 8.02513C12.6683 8.03643 12.8599 7.81038 12.8412 7.21134C12.7945 5.86256 12.8505 4.51377 12.8178 3.16499C12.8038 2.51698 13.1309 2.26832 13.9253 2.27209C17.1543 2.29093 20.3833 2.24195 23.6076 2.29846C26.2525 2.34367 28.3506 3.99386 28.4394 6.13005C28.5328 8.38681 28.4534 10.6473 28.4814 12.9041C28.4955 13.8234 27.7431 13.7556 26.9768 13.7706C26.187 13.7857 25.631 13.7141 25.6216 12.8853C25.6076 11.48 25.5562 11.48 23.8179 11.48C17.2431 11.48 10.6729 11.4988 4.09815 11.4611C3.09347 11.4536 2.73366 11.6231 2.80842 12.4821C2.90656 13.6388 1.78973 14.1888 0.485984 13.7141C-0.056075 13.5144 0.00467291 13.1188 0.00467291 12.7421C0.00467291 10.7641 0.00467291 8.78994 0.00467291 6.81198L0 6.81574Z" fill="#100D0B"/>
<path d="M7.8832 6.86479C5.9346 6.89117 4.28973 5.61774 4.25234 4.05044C4.21496 2.50198 5.83179 1.1645 7.76171 1.1419C9.70564 1.11929 11.3458 2.39649 11.3879 3.95625C11.4299 5.50848 9.82246 6.84219 7.87853 6.86479H7.8832Z" fill="#100D0B"/>
</svg>
