<svg width="26" height="22" viewBox="0 0 26 22" fill="none" xmlns="http://www.w3.org/2000/svg">
<path d="M13.1042 21.504C9.57069 21.504 6.03769 21.5023 2.50423 21.5053C1.65574 21.5061 1.01655 21.1607 0.61609 20.4667C0.255043 19.8416 0.271351 19.1942 0.650065 18.5737C1.87636 16.5658 3.1108 14.5626 4.33936 12.5559C5.83519 10.1124 7.32785 7.66681 8.82278 5.22247C9.61735 3.92343 10.4187 2.62824 11.2079 1.32663C11.6183 0.649785 12.2067 0.254351 13.0475 0.24154C13.93 0.227875 14.5397 0.64039 14.9687 1.34329C16.6902 4.16513 18.4157 6.98484 20.1412 9.80455C21.9229 12.7161 23.7077 15.6259 25.4889 18.5378C26.3202 19.8971 25.3435 21.5014 23.6814 21.5032C20.1557 21.5066 16.6299 21.504 13.1042 21.5044V21.504ZM15.2183 8.52003C15.1613 8.04132 15.1413 7.69244 15.0743 7.35209C14.9769 6.85716 14.7993 6.38443 14.3739 6.0475C13.8294 5.61619 13.1943 5.60851 12.532 5.7268C11.7909 5.85918 11.3487 6.28279 11.1481 6.94854C10.9388 7.64247 10.9347 8.35562 11.0058 9.06364C11.1286 10.2879 11.4316 11.4807 11.7977 12.6588C11.958 13.1756 12.113 13.6965 12.3223 14.1966C12.5039 14.6305 12.8659 14.7872 13.2786 14.6749C13.6111 14.5843 13.8176 14.3563 13.9001 14.0505C14.2113 12.8997 14.5261 11.7497 14.8066 10.592C14.9819 9.86817 15.0987 9.13197 15.2183 8.52088V8.52003ZM13.0946 18.1454C13.7329 18.2103 14.5733 17.65 14.5692 16.7831C14.5656 16.0388 13.9128 15.426 13.1304 15.426C12.2833 15.426 11.6242 16.0179 11.6219 16.7814C11.6192 17.5433 12.2706 18.1462 13.0946 18.1454Z" fill="#100D0B"/>
</svg>
