<svg width="29" height="19" viewBox="0 0 29 19" fill="none" xmlns="http://www.w3.org/2000/svg">
<path d="M14.2016 18.1229C12.1651 18.1229 10.1285 18.1442 8.09191 18.1144C6.75728 18.0973 6.0461 17.4884 5.82905 16.2876C5.27026 13.1621 7.3992 10.2708 10.6319 10.4752C13.0656 10.6285 15.3977 10.6285 17.8361 10.4752C21.3597 10.2495 23.3501 13.4389 22.5327 16.7858C22.3064 17.7141 21.4567 18.1229 20.4268 18.1229C18.3533 18.1229 16.2752 18.1229 14.2016 18.1229Z" fill="#100D0B"/>
<path d="M19.1384 4.53927C19.1292 7.04735 16.9356 9.05722 14.2248 9.03593C11.5047 9.0189 9.35731 7.00903 9.36655 4.48817C9.37578 1.96306 11.5324 -0.00848891 14.2802 2.74865e-05C17.0095 0.00854389 19.1523 2.0099 19.143 4.53927H19.1384Z" fill="#100D0B"/>
<path d="M3.00274 14.2522C2.43471 14.2522 2.00985 14.2777 1.59422 14.2436C1.02619 14.1968 0.578238 13.9456 0.324243 13.4474C-0.691737 11.446 0.795288 9.09973 3.17822 9.04437C4.42973 9.01457 5.71817 8.83146 6.93735 9.28283C7.60697 9.52981 7.921 9.8151 7.07128 10.3048C5.99064 10.9265 5.18709 11.8761 4.91924 12.9704C4.6283 14.15 4.04181 14.4949 3.00735 14.2479L3.00274 14.2522Z" fill="#100D0B"/>
<path d="M24.1259 9.05314C24.6247 9.05314 25.1281 9.01056 25.6222 9.06166C27.8019 9.27883 29.1689 11.7188 28.1344 13.5115C27.8573 13.9927 27.4002 14.2098 26.8275 14.2567C26.7121 14.2652 26.5966 14.2567 26.4812 14.2652C25.0726 14.3376 23.7242 14.5164 23.4009 12.6215C23.2346 11.6421 22.3387 10.8288 21.3689 10.2667C20.5423 9.78982 20.9533 9.5471 21.5259 9.30012C22.3618 8.93817 23.2531 9.04889 24.1305 9.05314H24.1259Z" fill="#100D0B"/>
<path d="M7.20985 5.15243C7.20985 6.55763 5.96297 7.72012 4.439 7.74141C2.87808 7.7627 1.56193 6.54912 1.58502 5.11836C1.61272 3.74296 2.91964 2.5677 4.41591 2.57622C5.93064 2.58473 7.20523 3.76425 7.20523 5.15243H7.20985Z" fill="#100D0B"/>
<path d="M24.1075 7.72448C22.5789 7.733 21.2997 6.5918 21.2674 5.19937C21.235 3.78565 22.5789 2.55503 24.1306 2.57632C25.6315 2.59335 26.9199 3.79842 26.9107 5.16956C26.9014 6.55774 25.6268 7.72023 24.1029 7.72448H24.1075Z" fill="#100D0B"/>
</svg>
